<svg width="100" height="100" viewBox="0 0 100 100" fill="none" xmlns="http://www.w3.org/2000/svg">
<circle cx="50" cy="50" r="50" fill="#F7F9FA"/>
<path d="M28 50H71V66C71 67.1046 70.1046 68 69 68H30C28.8954 68 28 67.1046 28 66V50Z" fill="#CACBCC"/>
<path d="M28 34C28 32.8954 28.8954 32 30 32H69C70.1046 32 71 32.8954 71 34V50H28V34Z" fill="#F71963"/>
<path d="M45.3409 58.5301C45.3409 57.6851 46.0259 57 46.871 57H60.1316C60.9766 57 61.6617 57.6851 61.6617 58.5301C61.6617 59.3751 60.9766 60.0602 60.1316 60.0602H46.871C46.0259 60.0602 45.3409 59.3751 45.3409 58.5301Z" fill="#727273"/>
<path d="M38.7106 57C37.8655 57 37.1805 57.6851 37.1805 58.5301C37.1805 59.3751 37.8655 60.0602 38.7106 60.0602H39.7306C40.5756 60.0602 41.2607 59.3751 41.2607 58.5301C41.2607 57.6851 40.5756 57 39.7306 57H38.7106Z" fill="#727273"/>
<path d="M46.6905 39C45.8454 39 45.1604 39.6851 45.1604 40.5301C45.1604 41.3751 45.8454 42.0602 46.6905 42.0602H59.9511C60.7962 42.0602 61.4812 41.3751 61.4812 40.5301C61.4812 39.6851 60.7962 39 59.9511 39H46.6905Z" fill="#F2F4F5"/>
<path d="M37 40.5301C37 39.6851 37.685 39 38.5301 39H39.5501C40.3952 39 41.0802 39.6851 41.0802 40.5301C41.0802 41.3751 40.3952 42.0602 39.5501 42.0602H38.5301C37.685 42.0602 37 41.3751 37 40.5301Z" fill="#F2F4F5"/>
</svg>
