<svg width="100" height="100" viewBox="0 0 100 100" fill="none" xmlns="http://www.w3.org/2000/svg">
<circle cx="50" cy="50" r="50" fill="#F7F9FA"/>
<path fill-rule="evenodd" clip-rule="evenodd" d="M58.4162 35.1111L64.9035 41.6852V41.6852C66.3654 43.0741 66.3654 45.4815 64.9035 46.8704V46.8704L48 64V40.4815L53.2995 35.1111C54.67 33.6297 57.0456 33.6297 58.4162 35.1111Z" fill="#CACBCC"/>
<path fill-rule="evenodd" clip-rule="evenodd" d="M72 59.5556V68.4444C72 70.4 70.3862 72 68.4137 72H46L62.1379 56H68.4137C70.3862 56 72 57.6 72 59.5556Z" fill="#E3E4E6"/>
<path fill-rule="evenodd" clip-rule="evenodd" d="M28 63.75V31.6667C28 29.65 29.6 28 31.5556 28H40.4444C42.4 28 44 29.65 44 31.6667V63.75C44 68.3333 40.4444 72 36 72C31.5556 72 28 68.3333 28 63.75ZM40 64C40 66.2 38.2 68 36 68C33.8 68 32 66.2 32 64C32 61.8 33.8 60 36 60C38.2 60 40 61.8 40 64Z" fill="#F71963"/>
</svg>
