<svg width="100" height="100" viewBox="0 0 100 100" fill="none" xmlns="http://www.w3.org/2000/svg">
<circle cx="50" cy="50" r="50" fill="#F7F9FA"/>
<path d="M45.4241 34H52.1256C52.8196 34 53.3822 34.5626 53.3822 35.2565V40.6178C53.3822 41.3117 52.8196 41.8743 52.1256 41.8743H45.4241C44.7301 41.8743 44.1675 41.3117 44.1675 40.6178V35.2565C44.1675 34.5626 44.7301 34 45.4241 34Z" fill="#CACBCC"/>
<path d="M32.0209 34H38.7225C39.4164 34 39.979 34.5626 39.979 35.2565V40.6178C39.979 41.3117 39.4164 41.8743 38.7225 41.8743H32.0209C31.327 41.8743 30.7644 41.3117 30.7644 40.6178V35.2565C30.7644 34.5626 31.327 34 32.0209 34Z" fill="#CACBCC"/>
<path d="M28 40.534V52.5968C28 53.2905 28.5629 53.8534 29.2566 53.8534H54.8063C55.4999 53.8534 56.0628 53.2905 56.0628 52.5968V40.534C56.0628 39.8404 55.4999 39.2775 54.8063 39.2775H29.2566C28.5629 39.2775 28 39.8404 28 40.534Z" fill="#CACBCC"/>
<path d="M28 40.534V52.5968C28 53.2905 28.5629 53.8534 29.2565 53.8534H42.0733V39.2775H29.2565C28.5629 39.2775 28 39.8404 28 40.534Z" fill="#CACBCC"/>
<path d="M29.2565 51.4241H42.0733C42.7672 51.4241 43.3298 51.9867 43.3298 52.6806V64.7434C43.3298 65.4374 42.7672 66 42.0733 66H29.2565C28.5626 66 28 65.4374 28 64.7434V52.6806C28 51.9867 28.5626 51.4241 29.2565 51.4241Z" fill="#727273"/>
<path d="M60.1675 46.0629H66.8691C67.563 46.0629 68.1256 46.6255 68.1256 47.3194V52.6807C68.1256 53.3746 67.563 53.9372 66.8691 53.9372H60.1675C59.4736 53.9372 58.911 53.3746 58.911 52.6807V47.3194C58.911 46.6255 59.4736 46.0629 60.1675 46.0629Z" fill="#F71963"/>
<path d="M40.8167 52.6806V64.7434C40.8167 65.4371 41.3797 66 42.0733 66H69.6335C70.3271 66 70.89 65.4371 70.89 64.7434V52.6806C70.89 51.987 70.3271 51.4241 69.6335 51.4241H42.0733C41.3797 51.4241 40.8167 51.987 40.8167 52.6806Z" fill="#F71963"/>
<path d="M40.8167 52.6806V64.7434C40.8167 65.4371 41.3797 66 42.0733 66H56.1466V51.4241H42.0733C41.3797 51.4241 40.8167 51.987 40.8167 52.6806Z" fill="#727273"/>
</svg>
